<svg width="169" height="170" viewBox="0 0 169 170" fill="none"
  xmlns="http://www.w3.org/2000/svg">
  <path d="M33.9161 54.3527H35.3083H17.6736C11.3824 56.3516 9.30947 59.331 7 66.4192V104.475C9.65366 111.277 12.5733 113.523 19.5299 115.613H40.4131C49.9249 116.077 52.8462 119.238 53.4071 130.464L53.8712 150.884C53.5594 156.915 61.0598 161.331 65.0089 162.487C68.958 163.642 102.135 162.487 102.135 162.487C112.411 161.392 115.236 156.347 115.129 150.884V97.0494C115.277 89.2234 112.811 86.7542 103.063 86.3752H65.937C55.5622 86.4494 53.6167 82.5995 53.8712 71.9883V20.0098C54.4101 9.86447 57.2006 6.75217 67.7933 7.01516H102.599C112.858 6.8132 115.302 10.0659 115.593 20.0098L116.057 42.2863C116.485 51.6233 119.911 53.439 129.051 53.4245H150.398C159.596 53.4817 162.013 56.2464 162 65.491V105.403C162.029 113.459 159.451 115.761 150.398 116.077H135.084" stroke="#58C1F9" stroke-width="14"/>
</svg>