<svg width="182" height="184" viewBox="0 0 182 184" fill="none" xmlns="http://www.w3.org/2000/svg">
<path d="M36.5 59H38H19C12.2217 61.1535 9.98827 64.3634 7.5 72V113C10.3591 120.328 13.5048 122.748 21 125H43.5C53.7482 125.499 56.8957 128.905 57.5 141L58 163C57.6641 169.498 65.7451 174.255 70 175.5C74.2549 176.745 110 175.5 110 175.5C121.072 174.32 124.116 168.886 124 163V105C124.16 96.5686 121.503 93.9083 111 93.5H71C59.8219 93.58 57.7258 89.4322 58 78V22C58.5807 11.0698 61.5872 7.71667 73 8H110.5C121.554 7.78242 124.187 11.2868 124.5 22L125 46C125.461 56.0594 129.152 58.0156 139 58H162C171.91 58.0615 174.514 61.0402 174.5 71V114C174.532 122.679 171.754 125.16 162 125.5H145.5" stroke="#58C1F9" stroke-width="14"/>
</svg>
